<?xml version="1.0" encoding="utf-8"?>
<!-- Generator: Adobe Illustrator 21.0.0, SVG Export Plug-In . SVG Version: 6.00 Build 0)  -->
<svg version="1.1" id="Layer_1" xmlns="http://www.w3.org/2000/svg" xmlns:xlink="http://www.w3.org/1999/xlink" x="0px" y="0px"
	 viewBox="0 0 400 140" style="enable-background:new 0 0 400 140;" xml:space="preserve" width="400" height="140">
<style type="text/css">
	.st0{stroke:#000000;stroke-width:0.75;stroke-miterlimit:10;}
	.st1{fill:#C62F28;}
	.st2{fill:#FFFFFF;}
</style>
<g>
	<path class="st0" d="M148.2,25.3h4.8l24.7,55.4l24.6-55.4h4.8l-27.5,61.6h-4L148.2,25.3z"/>
	<path class="st0" d="M212.5,55.9c0-18.5,13.5-31.7,30.8-31.7c7.6,0,14.6,2.2,19.9,6.3v4.6c-5.7-4.5-12.7-6.7-19.6-6.7
		c-15,0-26.7,11.4-26.7,27.5c0,16,11.7,27.5,26.3,27.5c7.6,0,14.5-2.4,19.1-7.2V51.4h4.4v26.5c-5.2,5.6-13.1,9.6-23.4,9.6
		C226.1,87.5,212.5,74.3,212.5,55.9z"/>
	<path class="st0" d="M278.6,81v-5c4,3.5,12.4,7.4,22,7.4c10.3,0,18-5,18-13c0-9-8.3-11.2-18.3-14c-11.3-3.2-19.9-6.2-19.9-17
		c0-8.2,6.8-15.2,20.4-15.2c7.3,0,13.7,2,18.6,5.2V34c-5-3.4-11.2-5.6-18.5-5.6c-11.4,0-16.2,5.3-16.2,11.1c0,8,8,10.1,18,13
		c9.8,2.8,20.3,6.2,20.3,17.8c0,11.3-10.5,17.1-22.1,17.1C291.3,87.5,282.9,84.3,278.6,81z"/>
</g>
<g>
	<path d="M169.8,98.8v2.8H162v21.5h-3.3v-21.5h-7.9v-2.8H169.8z"/>
	<path d="M176.1,105.7c1,0,2,0.2,2.8,0.5c0.9,0.3,1.6,0.8,2.3,1.5c0.6,0.7,1.1,1.5,1.5,2.4c0.4,1,0.5,2,0.5,3.3c0,0.5-0.1,0.8-0.2,1
		c-0.1,0.2-0.3,0.2-0.6,0.2H171c0,1.1,0.2,2,0.4,2.8c0.3,0.8,0.6,1.5,1.1,2c0.5,0.5,1,0.9,1.7,1.2c0.7,0.3,1.4,0.4,2.2,0.4
		c0.8,0,1.4-0.1,2-0.3c0.5-0.2,1-0.4,1.4-0.6c0.4-0.2,0.7-0.4,1-0.6c0.3-0.2,0.5-0.3,0.7-0.3c0.2,0,0.4,0.1,0.6,0.3l0.8,1.1
		c-0.4,0.5-0.8,0.8-1.3,1.2c-0.5,0.3-1.1,0.6-1.7,0.8c-0.6,0.2-1.2,0.4-1.8,0.5c-0.6,0.1-1.3,0.2-1.9,0.2c-1.2,0-2.3-0.2-3.3-0.6
		c-1-0.4-1.9-1-2.6-1.8c-0.7-0.8-1.3-1.7-1.7-2.9c-0.4-1.1-0.6-2.5-0.6-3.9c0-1.2,0.2-2.3,0.6-3.4c0.4-1,0.9-1.9,1.6-2.7
		c0.7-0.8,1.5-1.4,2.5-1.8C173.7,105.9,174.8,105.7,176.1,105.7z M176.1,107.9c-1.5,0-2.6,0.4-3.4,1.3c-0.8,0.8-1.4,2-1.6,3.5h9.3
		c0-0.7-0.1-1.3-0.3-1.9c-0.2-0.6-0.5-1.1-0.8-1.5c-0.4-0.4-0.8-0.8-1.4-1C177.4,108,176.8,107.9,176.1,107.9z"/>
	<path d="M198.8,109c-0.1,0.1-0.2,0.2-0.3,0.3c-0.1,0.1-0.2,0.1-0.4,0.1c-0.2,0-0.4-0.1-0.6-0.2c-0.2-0.1-0.4-0.3-0.8-0.5
		c-0.3-0.2-0.7-0.3-1.1-0.5c-0.4-0.1-1-0.2-1.6-0.2c-0.8,0-1.6,0.2-2.2,0.4c-0.6,0.3-1.2,0.7-1.6,1.3c-0.4,0.6-0.8,1.2-1,2.1
		c-0.2,0.8-0.3,1.7-0.3,2.7c0,1,0.1,2,0.4,2.8c0.2,0.8,0.6,1.5,1,2s1,1,1.6,1.3c0.6,0.3,1.3,0.4,2.1,0.4c0.7,0,1.3-0.1,1.8-0.3
		c0.5-0.2,0.9-0.4,1.2-0.6c0.3-0.2,0.6-0.4,0.8-0.6c0.2-0.2,0.4-0.3,0.6-0.3c0.3,0,0.5,0.1,0.6,0.3l0.8,1.1c-0.7,0.9-1.7,1.6-2.8,2
		c-1.1,0.4-2.3,0.6-3.5,0.6c-1.1,0-2.1-0.2-3-0.6c-0.9-0.4-1.7-1-2.4-1.7c-0.7-0.8-1.2-1.7-1.6-2.8c-0.4-1.1-0.6-2.3-0.6-3.7
		c0-1.3,0.2-2.5,0.5-3.5c0.4-1.1,0.9-2,1.6-2.8c0.7-0.8,1.5-1.4,2.5-1.8c1-0.4,2.2-0.7,3.5-0.7c1.2,0,2.3,0.2,3.2,0.6
		c0.9,0.4,1.7,0.9,2.5,1.7L198.8,109z"/>
	<path d="M202.9,123.1v-17.2h1.8c0.4,0,0.7,0.2,0.8,0.6l0.2,1.9c0.7-0.8,1.6-1.5,2.5-2c0.9-0.5,2-0.8,3.2-0.8c0.9,0,1.8,0.2,2.5,0.5
		c0.7,0.3,1.3,0.8,1.8,1.3c0.5,0.6,0.8,1.3,1.1,2.1c0.2,0.8,0.4,1.7,0.4,2.7v10.9h-3v-10.9c0-1.3-0.3-2.3-0.9-3
		c-0.6-0.7-1.5-1.1-2.7-1.1c-0.9,0-1.7,0.2-2.5,0.6c-0.8,0.4-1.5,1-2.1,1.7v12.7H202.9z"/>
	<path d="M228.7,105.7c1.3,0,2.4,0.2,3.4,0.6c1,0.4,1.9,1,2.6,1.8c0.7,0.8,1.2,1.7,1.6,2.8c0.4,1.1,0.6,2.3,0.6,3.7
		c0,1.4-0.2,2.6-0.6,3.7c-0.4,1.1-0.9,2-1.6,2.8c-0.7,0.8-1.6,1.4-2.6,1.8c-1,0.4-2.1,0.6-3.4,0.6c-1.3,0-2.4-0.2-3.4-0.6
		c-1-0.4-1.9-1-2.6-1.8c-0.7-0.8-1.3-1.7-1.6-2.8c-0.4-1.1-0.6-2.3-0.6-3.7c0-1.3,0.2-2.6,0.6-3.7c0.4-1.1,0.9-2,1.6-2.8
		c0.7-0.8,1.6-1.4,2.6-1.8C226.3,105.9,227.4,105.7,228.7,105.7z M228.7,121c1.7,0,3-0.6,3.8-1.7c0.8-1.1,1.3-2.7,1.3-4.8
		c0-2-0.4-3.6-1.3-4.8c-0.8-1.1-2.1-1.7-3.8-1.7c-0.9,0-1.6,0.1-2.2,0.4c-0.6,0.3-1.2,0.7-1.6,1.3c-0.4,0.6-0.7,1.2-0.9,2
		c-0.2,0.8-0.3,1.7-0.3,2.7c0,1,0.1,1.9,0.3,2.7c0.2,0.8,0.5,1.5,0.9,2c0.4,0.5,1,1,1.6,1.3C227.1,120.8,227.8,121,228.7,121z"/>
	<path d="M244,98.1v25h-3v-25H244z"/>
	<path d="M256.3,105.7c1.3,0,2.4,0.2,3.4,0.6c1,0.4,1.9,1,2.6,1.8c0.7,0.8,1.2,1.7,1.6,2.8c0.4,1.1,0.6,2.3,0.6,3.7
		c0,1.4-0.2,2.6-0.6,3.7c-0.4,1.1-0.9,2-1.6,2.8c-0.7,0.8-1.6,1.4-2.6,1.8c-1,0.4-2.1,0.6-3.4,0.6c-1.3,0-2.4-0.2-3.4-0.6
		c-1-0.4-1.9-1-2.6-1.8c-0.7-0.8-1.3-1.7-1.6-2.8c-0.4-1.1-0.6-2.3-0.6-3.7c0-1.3,0.2-2.6,0.6-3.7c0.4-1.1,0.9-2,1.6-2.8
		c0.7-0.8,1.6-1.4,2.6-1.8C253.9,105.9,255,105.7,256.3,105.7z M256.3,121c1.7,0,3-0.6,3.8-1.7c0.8-1.1,1.3-2.7,1.3-4.8
		c0-2-0.4-3.6-1.3-4.8c-0.8-1.1-2.1-1.7-3.8-1.7c-0.9,0-1.6,0.1-2.2,0.4c-0.6,0.3-1.2,0.7-1.6,1.3c-0.4,0.6-0.7,1.2-0.9,2
		c-0.2,0.8-0.3,1.7-0.3,2.7c0,1,0.1,1.9,0.3,2.7c0.2,0.8,0.5,1.5,0.9,2c0.4,0.5,1,1,1.6,1.3C254.6,120.8,255.4,121,256.3,121z"/>
	<path d="M273.9,105.6c0.7,0,1.4,0.1,2.1,0.2c0.7,0.2,1.2,0.4,1.8,0.7h4.7v1.1c0,0.4-0.2,0.6-0.7,0.7l-2,0.3
		c0.4,0.7,0.6,1.6,0.6,2.5c0,0.8-0.2,1.6-0.5,2.3c-0.3,0.7-0.8,1.3-1.3,1.8c-0.6,0.5-1.2,0.9-2,1.1c-0.8,0.3-1.6,0.4-2.6,0.4
		c-0.8,0-1.6-0.1-2.3-0.3c-0.4,0.2-0.6,0.5-0.8,0.8c-0.2,0.3-0.3,0.5-0.3,0.8c0,0.4,0.2,0.7,0.5,1c0.3,0.2,0.8,0.4,1.3,0.5
		c0.5,0.1,1.2,0.1,1.8,0.1c0.7,0,1.4,0,2.1,0c0.7,0,1.4,0.1,2.1,0.2c0.7,0.1,1.3,0.3,1.8,0.6c0.5,0.3,1,0.7,1.3,1.2
		c0.3,0.5,0.5,1.2,0.5,2c0,0.7-0.2,1.5-0.6,2.2c-0.4,0.7-0.9,1.3-1.6,1.9c-0.7,0.5-1.5,1-2.5,1.3c-1,0.3-2.1,0.5-3.4,0.5
		c-1.3,0-2.4-0.1-3.3-0.4c-0.9-0.2-1.7-0.6-2.3-1c-0.6-0.4-1.1-0.9-1.4-1.5c-0.3-0.5-0.5-1.1-0.5-1.7c0-0.8,0.3-1.6,0.8-2.2
		c0.5-0.6,1.3-1.1,2.2-1.4c-0.5-0.2-0.9-0.5-1.2-0.9c-0.3-0.4-0.4-0.9-0.4-1.5c0-0.2,0-0.5,0.1-0.8c0.1-0.3,0.2-0.5,0.4-0.8
		c0.2-0.3,0.4-0.5,0.7-0.7c0.3-0.2,0.6-0.4,0.9-0.6c-0.8-0.5-1.5-1.1-2-1.9c-0.5-0.8-0.7-1.7-0.7-2.8c0-0.8,0.2-1.6,0.5-2.3
		c0.3-0.7,0.8-1.3,1.4-1.7c0.6-0.5,1.3-0.9,2.1-1.1C272.1,105.8,273,105.6,273.9,105.6z M279.3,124c0-0.4-0.1-0.8-0.4-1.1
		c-0.2-0.3-0.6-0.5-1-0.6c-0.4-0.1-0.9-0.3-1.4-0.3c-0.5-0.1-1.1-0.1-1.7-0.1s-1.2,0-1.8,0c-0.6,0-1.2-0.1-1.7-0.2
		c-0.6,0.3-1.2,0.7-1.6,1.1c-0.4,0.4-0.6,1-0.6,1.6c0,0.4,0.1,0.7,0.3,1.1c0.2,0.3,0.5,0.6,0.9,0.9c0.4,0.2,0.9,0.4,1.5,0.6
		c0.6,0.1,1.3,0.2,2.2,0.2c0.8,0,1.5-0.1,2.2-0.2c0.6-0.2,1.2-0.4,1.6-0.6c0.4-0.3,0.8-0.6,1-1C279.2,124.9,279.3,124.5,279.3,124z
		 M273.9,114.7c0.6,0,1.2-0.1,1.6-0.3c0.5-0.2,0.9-0.4,1.2-0.7c0.3-0.3,0.6-0.7,0.7-1.1c0.2-0.4,0.2-0.9,0.2-1.4
		c0-1.1-0.3-1.9-1-2.5c-0.6-0.6-1.6-0.9-2.8-0.9c-1.2,0-2.1,0.3-2.8,0.9c-0.6,0.6-1,1.5-1,2.5c0,0.5,0.1,1,0.2,1.4
		c0.2,0.4,0.4,0.8,0.7,1.1c0.3,0.3,0.7,0.5,1.2,0.7C272.8,114.6,273.3,114.7,273.9,114.7z"/>
	<path d="M292.4,98.5l-4,4.4c-0.2,0.2-0.3,0.3-0.5,0.4c-0.2,0.1-0.3,0.1-0.6,0.1h-1.8l2.5-4.1c0.2-0.3,0.3-0.5,0.5-0.6
		c0.2-0.1,0.5-0.2,0.8-0.2H292.4z M288.9,105.9v17.2h-3v-17.2H288.9z"/>
	<path d="M306.8,123.1h-1.3c-0.3,0-0.5,0-0.7-0.1c-0.2-0.1-0.3-0.3-0.4-0.6l-0.3-1.6c-0.5,0.4-0.9,0.8-1.3,1.1
		c-0.4,0.3-0.9,0.6-1.4,0.8c-0.5,0.2-1,0.4-1.5,0.5c-0.5,0.1-1.1,0.2-1.8,0.2c-0.7,0-1.3-0.1-1.9-0.3c-0.6-0.2-1.1-0.5-1.5-0.8
		c-0.4-0.4-0.8-0.8-1-1.4c-0.3-0.6-0.4-1.3-0.4-2c0-0.7,0.2-1.3,0.6-2c0.4-0.6,1-1.2,1.8-1.7c0.8-0.5,1.9-0.9,3.3-1.2
		c1.3-0.3,3-0.5,4.9-0.5v-1.3c0-1.3-0.3-2.4-0.9-3c-0.6-0.7-1.4-1-2.5-1c-0.7,0-1.4,0.1-1.9,0.3c-0.5,0.2-0.9,0.4-1.3,0.6
		c-0.4,0.2-0.7,0.4-0.9,0.6c-0.3,0.2-0.5,0.3-0.8,0.3c-0.2,0-0.4-0.1-0.5-0.2c-0.2-0.1-0.3-0.2-0.4-0.4l-0.5-1c1-0.9,2-1.6,3.1-2.1
		c1.1-0.5,2.3-0.7,3.6-0.7c1,0,1.8,0.2,2.6,0.5c0.7,0.3,1.4,0.8,1.9,1.3c0.5,0.6,0.9,1.3,1.2,2.1c0.3,0.8,0.4,1.7,0.4,2.6V123.1z
		 M299,121.3c0.5,0,1-0.1,1.5-0.2c0.4-0.1,0.9-0.3,1.2-0.5c0.4-0.2,0.8-0.4,1.1-0.7c0.4-0.3,0.7-0.6,1-1v-3.5
		c-1.4,0-2.6,0.1-3.5,0.3c-1,0.2-1.8,0.4-2.4,0.7c-0.6,0.3-1.1,0.6-1.3,1c-0.3,0.4-0.4,0.8-0.4,1.3c0,0.5,0.1,0.8,0.2,1.2
		c0.1,0.3,0.3,0.6,0.6,0.8c0.2,0.2,0.5,0.4,0.9,0.5C298.2,121.2,298.6,121.3,299,121.3z"/>
	<path d="M321.2,108.8c-0.1,0.2-0.3,0.4-0.6,0.4c-0.2,0-0.4-0.1-0.6-0.2c-0.2-0.1-0.5-0.3-0.8-0.4c-0.3-0.2-0.7-0.3-1.1-0.4
		c-0.4-0.1-0.9-0.2-1.5-0.2c-0.5,0-1,0.1-1.4,0.2c-0.4,0.1-0.8,0.3-1,0.5c-0.3,0.2-0.5,0.5-0.7,0.8c-0.2,0.3-0.2,0.6-0.2,1
		c0,0.4,0.1,0.8,0.4,1.1c0.3,0.3,0.6,0.5,1,0.8c0.4,0.2,0.9,0.4,1.4,0.6c0.5,0.2,1.1,0.3,1.6,0.5c0.6,0.2,1.1,0.4,1.6,0.6
		c0.5,0.2,1,0.5,1.4,0.8c0.4,0.3,0.8,0.8,1,1.2c0.3,0.5,0.4,1.1,0.4,1.8c0,0.8-0.1,1.5-0.4,2.2c-0.3,0.7-0.7,1.3-1.3,1.7
		c-0.6,0.5-1.2,0.9-2,1.2c-0.8,0.3-1.7,0.4-2.8,0.4c-1.2,0-2.3-0.2-3.3-0.6c-1-0.4-1.8-0.9-2.5-1.5l0.7-1.2c0.1-0.1,0.2-0.3,0.3-0.3
		c0.1-0.1,0.3-0.1,0.5-0.1c0.2,0,0.4,0.1,0.6,0.2c0.2,0.2,0.5,0.3,0.8,0.5c0.3,0.2,0.7,0.4,1.2,0.5c0.5,0.2,1,0.2,1.7,0.2
		c0.6,0,1.1-0.1,1.5-0.2c0.4-0.2,0.8-0.4,1.1-0.6c0.3-0.3,0.5-0.6,0.7-0.9c0.1-0.3,0.2-0.7,0.2-1.1c0-0.5-0.1-0.9-0.4-1.2
		c-0.3-0.3-0.6-0.6-1-0.8c-0.4-0.2-0.9-0.4-1.4-0.6c-0.5-0.2-1.1-0.3-1.6-0.5c-0.6-0.2-1.1-0.4-1.6-0.6c-0.5-0.2-1-0.5-1.4-0.9
		c-0.4-0.4-0.8-0.8-1-1.3c-0.3-0.5-0.4-1.1-0.4-1.9c0-0.7,0.1-1.3,0.4-1.9c0.3-0.6,0.7-1.1,1.2-1.6c0.5-0.5,1.2-0.8,1.9-1.1
		c0.8-0.3,1.6-0.4,2.6-0.4c1.1,0,2.1,0.2,3,0.5c0.9,0.4,1.7,0.8,2.3,1.5L321.2,108.8z"/>
	<path d="M323.9,98.8h2.7c0.3,0,0.5,0.1,0.7,0.2c0.2,0.1,0.3,0.3,0.4,0.6l5,16.9c0.1,0.3,0.2,0.6,0.2,1c0.1,0.4,0.1,0.7,0.2,1.1
		c0.1-0.4,0.2-0.8,0.2-1.1c0.1-0.4,0.2-0.7,0.3-1l5.7-16.9c0.1-0.2,0.2-0.4,0.4-0.5c0.2-0.2,0.4-0.2,0.7-0.2h0.9
		c0.3,0,0.5,0.1,0.7,0.2c0.2,0.1,0.3,0.3,0.4,0.6l5.7,16.9c0.2,0.6,0.4,1.3,0.5,2c0.1-0.4,0.1-0.7,0.2-1.1c0.1-0.3,0.1-0.7,0.2-0.9
		l5-16.9c0.1-0.2,0.2-0.4,0.4-0.5c0.2-0.2,0.4-0.2,0.7-0.2h2.6l-7.6,24.3h-3l-6.2-18.5c-0.1-0.4-0.2-0.8-0.3-1.2
		c-0.1,0.2-0.1,0.4-0.2,0.7c-0.1,0.2-0.1,0.4-0.2,0.6l-6.2,18.5h-3L323.9,98.8z"/>
	<path d="M376.1,98.8v2.7h-11.7v8.1h9.4v2.6h-9.4v8.3h11.7v2.7h-15V98.8H376.1z"/>
	<path d="M380.9,123.1V98.8h7.8c1.5,0,2.8,0.1,3.9,0.4c1.1,0.3,2,0.7,2.7,1.3c0.7,0.5,1.2,1.2,1.5,2c0.3,0.8,0.5,1.7,0.5,2.7
		c0,0.6-0.1,1.2-0.3,1.7c-0.2,0.6-0.5,1.1-0.8,1.5c-0.4,0.5-0.9,0.9-1.4,1.3c-0.6,0.4-1.2,0.7-2,0.9c1.8,0.4,3.1,1,4,1.9
		c0.9,0.9,1.4,2.1,1.4,3.7c0,1-0.2,2-0.6,2.8c-0.4,0.8-0.9,1.6-1.7,2.2c-0.7,0.6-1.6,1.1-2.7,1.4c-1.1,0.3-2.3,0.5-3.6,0.5H380.9z
		 M384.2,109.7h4.3c0.9,0,1.7-0.1,2.4-0.3c0.7-0.2,1.2-0.5,1.7-0.8c0.4-0.4,0.8-0.8,1-1.3c0.2-0.5,0.3-1.1,0.3-1.7
		c0-1.4-0.4-2.5-1.3-3.1c-0.9-0.7-2.2-1-4-1h-4.5V109.7z M384.2,112v8.5h5.3c0.9,0,1.7-0.1,2.4-0.3c0.7-0.2,1.2-0.5,1.7-0.9
		s0.8-0.9,1-1.4c0.2-0.5,0.3-1.1,0.3-1.8c0-1.3-0.4-2.2-1.3-3c-0.9-0.7-2.2-1.1-4-1.1H384.2z"/>
</g>
<circle class="st1" cx="70.1" cy="70" r="67.9"/>
<path class="st2" d="M70,15.2L48.8,31.6v71.1h42.5V31.1L70,15.2z M81.4,93.1H58.6V36.4l11.5-8.9l11.4,8.9L81.4,93.1z"/>
<polygon class="st2" points="34.6,114.9 34.6,79.9 46.6,67.9 46.6,102.7 "/>
<polygon class="st2" points="93.6,67.6 93.6,102.7 105.5,114.7 105.5,79.5 "/>
<polygon class="st2" points="60.7,59.7 60.7,51.1 70,43.9 79.2,50.8 79.2,59.7 70,52.9 "/>
<polygon class="st2" points="60.7,76.8 60.7,68.2 70,61 79.2,67.9 79.2,76.8 70,70 "/>
<polygon class="st2" points="61.4,124.8 70.1,120.9 78.8,124.8 74.7,116 78.5,107.1 70.1,111.4 61,107.1 65.2,116 "/>
</svg>
